<svg width="24" height="25" viewBox="0 0 24 25" fill="none" xmlns="http://www.w3.org/2000/svg">
<path d="M12 1.87405C17.8655 1.87406 22.6259 6.63448 22.6259 12.5C22.6259 18.3655 17.8655 23.126 12 23.126C6.13445 23.126 1.37402 18.3655 1.37402 12.5C1.37402 6.63448 6.13445 1.87405 12 1.87405Z" stroke="#3B3B3B" stroke-width="0.732824"/>
<path d="M13.224 3.20688V4.2981C14.5971 4.50116 15.8607 5.03882 16.9282 5.82902L17.6988 5.05955C16.4248 4.08188 14.8935 3.42471 13.224 3.20688ZM10.7701 3.21031C9.10161 3.4294 7.57182 4.08794 6.29877 5.06528L7.0648 5.83474H7.06824C8.13512 5.04403 9.3975 4.50234 10.7701 4.2981V3.21031ZM11.3129 5.43398V9.10726C10.8679 9.1971 10.452 9.37046 10.0866 9.61337L7.48847 7.01642L6.51633 7.98856L9.11671 10.5889C8.87446 10.9539 8.69799 11.3688 8.60831 11.813H4.93389V13.187H8.60831C8.69797 13.631 8.87462 14.0429 9.11671 14.4076L6.51633 17.0092L7.48847 17.9813L10.0866 15.3832C10.452 15.6261 10.8679 15.8018 11.3129 15.8916V19.566H12.6869V15.8916C13.1324 15.8017 13.5453 15.623 13.911 15.3798L16.5114 17.9813L17.4835 17.0092L14.8831 14.4076C15.1251 14.0429 15.303 13.6309 15.3927 13.187H19.0659V11.813H15.3927C15.303 11.3689 15.1253 10.9538 14.8831 10.5889L17.4835 7.98856L16.5114 7.01642L13.911 9.6168C13.5453 9.37354 13.1324 9.19718 12.6869 9.10726V5.43398H11.3129ZM19.4347 6.79543L18.6652 7.56489C19.4574 8.6328 19.9976 9.89926 20.2018 11.2737H21.293C21.074 9.60321 20.4143 8.06958 19.4347 6.79543ZM4.56175 6.80115C3.58412 8.07408 2.92564 9.60511 2.70679 11.2737H3.79915C4.00312 9.90149 4.54185 8.63859 5.33236 7.57176L4.56175 6.80115ZM2.70679 13.7263C2.92502 15.3947 3.58238 16.9256 4.55946 18.1989L5.32892 17.4283C4.5393 16.3616 4.00255 15.0983 3.79915 13.7263H2.70679ZM20.2018 13.7263C19.9975 15.0999 19.4571 16.3637 18.6652 17.4317L19.4347 18.2012C20.4133 16.9274 21.0737 15.3958 21.293 13.7263H20.2018ZM7.0648 19.1653L6.29534 19.9347C7.56872 20.9138 9.10085 21.5737 10.7701 21.7931V20.7008C9.3969 20.4962 8.13193 19.9569 7.0648 19.1653ZM16.9282 19.1676C15.8603 19.9585 14.5977 20.5009 13.224 20.7042V21.7931C14.8936 21.5751 16.4248 20.9158 17.6988 19.9382L16.9316 19.1676H16.9282Z" fill="#3B3B3B"/>
</svg>
