<svg width="24" height="25" viewBox="0 0 24 25" fill="none" xmlns="http://www.w3.org/2000/svg">
<path d="M2.23654 12.266C2.35403 9.15113 3.93261 6.27821 6.81838 4.37977C6.8269 4.38297 6.90166 4.35574 6.86751 4.42038C6.63891 4.63233 2.52917 9.4871 6.31207 13.3191C6.31207 13.3191 8.29964 15.2299 9.84088 13.4168C9.84088 13.4168 11.3617 11.448 9.82164 8.46336C9.82164 8.46336 9.43182 7.48881 8.02731 6.88431L9.15843 5.6363C9.15843 5.6363 10.1143 6.04642 10.8544 7.15877C10.8544 7.15877 10.8939 5.98764 9.99678 4.7397L11.7505 2.75L13.4866 4.721C13.4866 4.721 12.6882 5.85205 12.6295 7.17747C12.6295 7.17747 13.1747 6.28034 14.3453 5.63637L15.456 6.88437C15.456 6.88437 14.388 7.23632 13.6724 8.45064C13.0572 9.57577 12.5836 11.982 13.7001 13.458C13.7001 13.458 14.9497 15.2299 17.1478 13.3535C17.1478 13.3535 21.1892 9.73227 16.7333 4.4968C16.7333 4.4968 16.4898 4.28159 16.7632 4.39854C18.7327 5.83241 21.0909 7.72332 21.3344 12.4424C21.2383 18.1649 17.4061 22.25 11.8103 22.25C6.33137 22.25 2.07212 17.6778 2.23654 12.266Z" fill="#C53030"/>
</svg>
