<svg width="12" height="13" viewBox="0 0 12 13" fill="none" xmlns="http://www.w3.org/2000/svg">
<g clip-path="url(#clip0_58_18)">
<path d="M6 5C7.10457 5 8 4.10457 8 3C8 1.89543 7.10457 1 6 1C4.89543 1 4 1.89543 4 3C4 4.10457 4.89543 5 6 5Z" stroke="#3B3B3B" stroke-linecap="round" stroke-linejoin="round"/>
<path d="M6 7C5.34339 7 4.69321 7.12933 4.08658 7.3806C3.47995 7.63188 2.92876 8.00017 2.46447 8.46447C1.52678 9.40215 1 10.6739 1 12H11C11 10.6739 10.4732 9.40215 9.53553 8.46447C8.59785 7.52678 7.32608 7 6 7V7Z" stroke="#3B3B3B" stroke-linecap="round" stroke-linejoin="round"/>
</g>
<defs>
<clipPath id="clip0_58_18">
<rect width="12" height="12" fill="white" transform="translate(0 0.5)"/>
</clipPath>
</defs>
</svg>
