<svg width="135" height="135" viewBox="0 0 135 135" fill="none" xmlns="http://www.w3.org/2000/svg">
<g opacity="0.15">
<path d="M67.9997 7.22913C100.993 7.22914 127.771 34.0065 127.771 67.0001C127.771 99.9937 100.993 126.771 67.9997 126.771C35.0062 126.771 8.22876 99.9937 8.22876 67.0001C8.22874 34.0065 35.0062 7.22913 67.9997 7.22913Z" stroke="#EDEDED" stroke-width="4.12214"/>
<path d="M74.8847 14.7259V20.864C82.6086 22.0063 89.7164 25.0306 95.7208 29.4754L100.055 25.1472C92.8892 19.6478 84.2756 15.9512 74.8847 14.7259ZM61.082 14.7452C51.6965 15.9776 43.0914 19.6819 35.9305 25.1794L40.2394 29.5076H40.2587C46.26 25.0599 53.3609 22.0129 61.082 20.864V14.7452ZM64.1349 27.2534V47.9156C61.6318 48.4209 59.2921 49.3961 57.2368 50.7624L42.6225 36.1546L37.1543 41.6229L51.7814 56.25C50.4188 58.3027 49.4261 60.6365 48.9217 63.1353H28.253V70.8643H48.9217C49.426 73.3618 50.4196 75.6782 51.7814 77.7302L37.1543 92.3638L42.6225 97.8321L57.2368 83.2178C59.2921 84.5841 61.6318 85.5722 64.1349 86.0775V106.746H71.8639V86.0775C74.3694 85.5717 76.6924 84.5668 78.7492 83.1985L93.3763 97.8321L98.8446 92.3638L84.2175 77.7302C85.5787 75.6786 86.5794 73.3612 87.0836 70.8643H107.746V63.1353H87.0836C86.5793 60.6371 85.5796 58.3024 84.2175 56.25L98.8446 41.6229L93.3763 36.1546L78.7492 50.7817C76.6924 49.4134 74.3694 48.4214 71.8639 47.9156V27.2534H64.1349ZM109.82 34.9115L105.492 39.2397C109.948 45.2467 112.986 52.3706 114.135 60.1016H120.273C119.041 50.7053 115.33 42.0786 109.82 34.9115ZM26.1597 34.9437C20.6606 42.1039 16.9566 50.7159 15.7256 60.1016H21.8701C23.0175 52.3831 26.0478 45.2793 30.4944 39.2784L26.1597 34.9437ZM15.7256 73.8979C16.9531 83.2823 20.6508 91.8938 26.1469 99.0558L30.4751 94.7211C26.0335 88.7211 23.0143 81.6153 21.8701 73.8979H15.7256ZM114.135 73.8979C112.986 81.6239 109.946 88.7333 105.492 94.7404L109.82 99.0687C115.325 91.9041 119.039 83.2887 120.273 73.8979H114.135ZM40.2394 104.492L35.9112 108.82C43.074 114.327 51.6922 118.039 61.082 119.274V113.129C53.3575 111.978 46.242 108.945 40.2394 104.492ZM95.7208 104.505C89.7143 108.954 82.6118 112.005 74.8847 113.148V119.274C84.2766 118.047 92.8892 114.339 100.055 108.839L95.7401 104.505H95.7208Z" fill="#EDEDED"/>
</g>
</svg>
