<svg width="135" height="135" viewBox="0 0 135 135" fill="none" xmlns="http://www.w3.org/2000/svg">
<g opacity="0.15">
<path fill-rule="evenodd" clip-rule="evenodd" d="M65.2713 84.88C64.1851 83.2947 58.3906 74.8373 58.3906 74.8373L62.8068 86.9832L49.1157 88.9708L62.8068 90.9584L57.5069 101.337C57.5069 101.337 64.1191 94.3863 65.0532 93.404C64.6683 108.454 64.5736 112.158 64.5736 112.158C64.5736 112.158 30.787 96.4791 49.5573 61.8082C49.5573 61.8082 26.1495 35.9709 47.349 20.071C47.349 20.071 11.1332 41.9332 34.0994 79.4749C34.0994 79.4749 15.1081 60.9251 25.0453 42.1539C25.0453 42.1539 7.82085 66.4458 28.7994 93.1668C28.7994 93.1668 23.058 89.6331 17.979 76.1625C17.979 76.1625 21.6839 116.264 66.5499 116.79C66.5498 116.796 66.5498 116.796 66.5498 116.796C66.6994 116.796 66.8485 116.795 66.9971 116.794C67.1456 116.795 67.2948 116.796 67.4442 116.796C67.4442 116.796 67.4442 116.796 67.4442 116.79C112.31 116.264 116.015 76.1625 116.015 76.1625C110.936 89.6331 105.195 93.1668 105.195 93.1668C126.173 66.4458 108.949 42.1539 108.949 42.1539C118.886 60.9251 99.8947 79.4749 99.8947 79.4749C122.861 41.9332 86.6451 20.071 86.6451 20.071C107.845 35.9709 84.4368 61.8082 84.4368 61.8082C103.207 96.4791 69.4206 112.158 69.4206 112.158C69.4206 112.158 69.3258 108.454 68.9408 93.404C69.875 94.3863 76.4872 101.337 76.4872 101.337L71.1873 90.9584L84.8784 88.9708L71.1873 86.9832L75.6035 74.8373C75.6035 74.8373 69.8089 83.2947 68.7227 84.88C68.2309 65.6557 67.0108 17.9568 67.0049 17.7316C67.0027 17.2027 67.0027 17.1998 67.0027 17.1998C67.0027 17.1998 67.0027 17.2002 66.997 17.4196C66.9914 17.2003 66.9914 17.1998 66.9914 17.1998C66.9914 17.1998 66.9914 17.2027 66.989 17.7316C66.9795 18.1078 65.762 65.6992 65.2714 84.88" fill="#EDEDED"/>
<path d="M67.0003 3.71887C32.0509 3.71887 3.71875 32.0505 3.71875 67C3.71875 101.949 32.0509 130.282 67.0003 130.282C101.95 130.282 130.281 101.949 130.281 67C130.281 32.0505 101.95 3.71887 67.0003 3.71887V3.71887Z" stroke="#EDEDED" stroke-width="0.0301341" stroke-miterlimit="10"/>
<path fill-rule="evenodd" clip-rule="evenodd" d="M67.0003 3.71887C32.0514 3.71887 3.71875 32.0511 3.71875 67C3.71875 101.949 32.0514 130.282 67.0003 130.282C101.949 130.282 130.281 101.949 130.281 67C130.281 32.0511 101.949 3.71887 67.0003 3.71887ZM67.0003 11.3C97.7621 11.3 122.7 36.2382 122.7 67C122.7 97.7617 97.7621 122.7 67.0003 122.7C36.2386 122.7 11.3003 97.7617 11.3003 67C11.3003 36.2382 36.2386 11.3 67.0003 11.3Z" fill="#EDEDED"/>
</g>
</svg>
