<svg width="24" height="25" viewBox="0 0 24 25" fill="none" xmlns="http://www.w3.org/2000/svg">
<path fill-rule="evenodd" clip-rule="evenodd" d="M11.6927 15.6786C11.4996 15.3968 10.4694 13.8933 10.4694 13.8933L11.2545 16.0526L8.82057 16.4059L11.2545 16.7593L10.3123 18.6044C10.3123 18.6044 11.4878 17.3687 11.6539 17.194C11.5855 19.8696 11.5686 20.5281 11.5686 20.5281C11.5686 20.5281 5.56213 17.7407 8.89908 11.577C8.89908 11.577 4.73769 6.9837 8.50648 4.15706C8.50648 4.15706 2.06812 8.04367 6.151 14.7177C6.151 14.7177 2.77478 11.42 4.54139 8.08291C4.54139 8.08291 1.47926 12.4015 5.20878 17.1519C5.20878 17.1519 4.18809 16.5237 3.28516 14.1289C3.28516 14.1289 3.9438 21.2581 11.92 21.3516C11.92 21.3526 11.92 21.3526 11.92 21.3526C11.9466 21.3526 11.9731 21.3524 11.9995 21.3523C12.0259 21.3525 12.0524 21.3526 12.079 21.3526C12.079 21.3526 12.079 21.3526 12.079 21.3516C20.0552 21.2581 20.7138 14.1289 20.7138 14.1289C19.8109 16.5237 18.7902 17.1519 18.7902 17.1519C22.5197 12.4015 19.4576 8.08291 19.4576 8.08291C21.2242 11.42 17.848 14.7177 17.848 14.7177C21.9308 8.04367 15.4925 4.15706 15.4925 4.15706C19.2613 6.9837 15.0999 11.577 15.0999 11.577C18.4368 17.7407 12.4303 20.5281 12.4303 20.5281C12.4303 20.5281 12.4135 19.8696 12.345 17.194C12.5111 17.3687 13.6866 18.6044 13.6866 18.6044L12.7444 16.7593L15.1784 16.4059L12.7444 16.0526L13.5295 13.8933C13.5295 13.8933 12.4994 15.3968 12.3063 15.6786C12.2188 12.261 12.0019 3.78118 12.0009 3.74116C12.0005 3.64712 12.0005 3.64661 12.0005 3.64661C12.0005 3.64661 12.0005 3.64669 11.9995 3.68569C11.9985 3.6467 11.9985 3.64661 11.9985 3.64661C11.9985 3.64661 11.9985 3.64712 11.998 3.74116C11.9963 3.80804 11.7799 12.2687 11.6927 15.6786" fill="#276749"/>
<path d="M12.0001 1.25C5.78683 1.25 0.75 6.28673 0.75 12.5C0.75 18.7132 5.78683 23.75 12.0001 23.75C18.2133 23.75 23.25 18.7132 23.25 12.5C23.25 6.28673 18.2133 1.25 12.0001 1.25V1.25Z" stroke="#276749" stroke-width="0.00535718" stroke-miterlimit="10"/>
<path fill-rule="evenodd" clip-rule="evenodd" d="M12.0001 1.25C5.78692 1.25 0.75 6.28684 0.75 12.5C0.75 18.7131 5.78692 23.75 12.0001 23.75C18.2132 23.75 23.25 18.7131 23.25 12.5C23.25 6.28684 18.2132 1.25 12.0001 1.25ZM12.0001 2.59775C17.4688 2.59775 21.9023 7.03122 21.9023 12.5C21.9023 17.9687 17.4688 22.4022 12.0001 22.4022C6.5313 22.4022 2.09784 17.9687 2.09784 12.5C2.09784 7.03122 6.5313 2.59775 12.0001 2.59775Z" fill="#276749"/>
</svg>
