<svg width="12" height="13" viewBox="0 0 12 13" fill="none" xmlns="http://www.w3.org/2000/svg">
<g clip-path="url(#clip0_58_30)">
<path d="M8.5 6.5H0.5" stroke="#3B3B3B" stroke-linecap="round" stroke-linejoin="round"/>
<path d="M5.5 9.5L8.5 6.5L5.5 3.5" stroke="#3B3B3B" stroke-linecap="round" stroke-linejoin="round"/>
<path d="M0.5 4V2.5C0.5 2.10218 0.658035 1.72064 0.93934 1.43934C1.22064 1.15804 1.60218 1 2 1H10C10.3978 1 10.7794 1.15804 11.0607 1.43934C11.342 1.72064 11.5 2.10218 11.5 2.5V10.5C11.5 10.8978 11.342 11.2794 11.0607 11.5607C10.7794 11.842 10.3978 12 10 12H2C1.60218 12 1.22064 11.842 0.93934 11.5607C0.658035 11.2794 0.5 10.8978 0.5 10.5V9" stroke="#3B3B3B" stroke-linecap="round" stroke-linejoin="round"/>
</g>
<defs>
<clipPath id="clip0_58_30">
<rect width="12" height="12" fill="white" transform="translate(0 0.5)"/>
</clipPath>
</defs>
</svg>
