<svg width="135" height="135" viewBox="0 0 135 135" fill="none" xmlns="http://www.w3.org/2000/svg">
<g opacity="0.15">
<path d="M12.0806 65.684C12.7415 48.1627 21.621 32.0026 37.8534 21.3238C37.9014 21.3418 38.3219 21.1887 38.1298 21.5522C36.8439 22.7445 13.7266 50.0525 35.0054 71.6077C35.0054 71.6077 46.1855 82.3557 54.855 72.1573C54.855 72.1573 63.4099 61.0825 54.7468 44.294C54.7468 44.294 52.5541 38.8122 44.6537 35.4118L51.0162 28.3918C51.0162 28.3918 56.3928 30.6987 60.5563 36.9557C60.5563 36.9557 60.7783 30.3681 55.7319 23.3484L65.5966 12.1564L75.3621 23.2432C75.3621 23.2432 70.8714 29.6054 70.5408 37.0609C70.5408 37.0609 73.6078 32.0145 80.1924 28.3922L86.4403 35.4122C86.4403 35.4122 80.4324 37.3919 76.4075 44.2225C72.9469 50.5513 70.2828 64.0866 76.5633 72.3891C76.5633 72.3891 83.5923 82.356 95.9564 71.8009C95.9564 71.8009 118.69 51.4316 93.6251 21.9821C93.6251 21.9821 92.2554 20.7715 93.7932 21.4294C104.871 29.4949 118.136 40.1313 119.506 66.6759C118.965 98.8652 97.4096 121.844 65.9332 121.844C35.114 121.844 11.1557 96.125 12.0806 65.684Z" fill="#EDEDED"/>
</g>
</svg>
